<svg xmlns="http://www.w3.org/2000/svg" width="14.965" height="14.965" viewBox="0 0 14.965 14.965"><defs><style>.a{fill:none;}.b{fill:#423f3f;}</style></defs><path class="a" d="M0,0H14.965V14.965H0Z"/><path class="b" d="M8.235,5.494V3H2V14.224H14.471V5.494ZM4.494,12.977H3.247V11.729H4.494Zm0-2.494H3.247V9.235H4.494Zm0-2.494H3.247V6.741H4.494Zm0-2.494H3.247V4.247H4.494Zm2.494,7.482H5.741V11.729H6.988Zm0-2.494H5.741V9.235H6.988Zm0-2.494H5.741V6.741H6.988Zm0-2.494H5.741V4.247H6.988Zm6.235,7.482H8.235V11.729H9.482V10.482H8.235V9.235H9.482V7.988H8.235V6.741h4.988ZM11.977,7.988H10.729V9.235h1.247Zm0,2.494H10.729v1.247h1.247Z" transform="translate(-0.753 -1.129)"/></svg>