<svg xmlns="http://www.w3.org/2000/svg" width="13.193" height="13.195" viewBox="0 0 13.193 13.195"><defs><style></style></defs><path class="a" d="M13.608,3.879a4.822,4.822,0,0,0-.307-1.6A3.38,3.38,0,0,0,11.371.348,4.834,4.834,0,0,0,9.77.041C9.064.008,8.84,0,7.048,0S5.032.008,4.329.039a4.823,4.823,0,0,0-1.6.307,3.22,3.22,0,0,0-1.17.763A3.249,3.249,0,0,0,.8,2.276a4.835,4.835,0,0,0-.307,1.6C.457,4.583.449,4.807.449,6.6S.457,8.615.488,9.318a4.821,4.821,0,0,0,.307,1.6A3.38,3.38,0,0,0,2.725,12.85a4.835,4.835,0,0,0,1.6.307c.7.031.928.039,2.719.039s2.016-.008,2.719-.039a4.82,4.82,0,0,0,1.6-.307A3.375,3.375,0,0,0,13.3,10.919a4.838,4.838,0,0,0,.307-1.6c.031-.7.039-.928.039-2.719S13.639,4.583,13.608,3.879ZM12.42,9.267a3.617,3.617,0,0,1-.227,1.224,2.189,2.189,0,0,1-1.253,1.253,3.63,3.63,0,0,1-1.224.227c-.7.031-.9.039-2.665.039S5.079,12,4.385,11.971a3.615,3.615,0,0,1-1.224-.227,2.03,2.03,0,0,1-.758-.492,2.051,2.051,0,0,1-.492-.758A3.63,3.63,0,0,1,1.684,9.27c-.031-.7-.039-.9-.039-2.665s.008-1.972.039-2.665a3.615,3.615,0,0,1,.227-1.224,2.006,2.006,0,0,1,.5-.758,2.048,2.048,0,0,1,.758-.492,3.632,3.632,0,0,1,1.224-.227c.7-.031.9-.039,2.665-.039s1.972.008,2.665.039a3.617,3.617,0,0,1,1.224.227,2.029,2.029,0,0,1,.758.492,2.051,2.051,0,0,1,.492.758,3.632,3.632,0,0,1,.227,1.224c.031.7.039.9.039,2.665S12.451,8.571,12.42,9.267Zm0,0" transform="translate(-0.449)"/><path class="a" d="M128.339,124.5a3.39,3.39,0,1,0,3.39,3.39A3.391,3.391,0,0,0,128.339,124.5Zm0,5.589a2.2,2.2,0,1,1,2.2-2.2A2.2,2.2,0,0,1,128.339,130.089Zm0,0" transform="translate(-121.74 -121.291)"/><path class="a" d="M364.032,89.393a.791.791,0,1,1-.791-.791A.791.791,0,0,1,364.032,89.393Zm0,0" transform="translate(-353.117 -86.318)"/></svg>