<svg xmlns="http://www.w3.org/2000/svg" width="14.965" height="14.965" viewBox="0 0 14.965 14.965"><defs><style>.a{fill:none;}.b{fill:#ffffff;}</style></defs><path class="a" d="M0,0H14.965V14.965H0Z"/><path class="b" d="M5.207,4.247a7.677,7.677,0,0,0,.281,1.615L4.74,6.61a9.244,9.244,0,0,1-.474-2.363h.942m6.148,7.495a7.952,7.952,0,0,0,1.621.281v.929a9.619,9.619,0,0,1-2.369-.468l.748-.742M5.806,3H3.624A.625.625,0,0,0,3,3.624a10.6,10.6,0,0,0,10.6,10.6.625.625,0,0,0,.624-.624V11.424A.625.625,0,0,0,13.6,10.8a7.113,7.113,0,0,1-2.226-.355.523.523,0,0,0-.193-.031.639.639,0,0,0-.443.181L9.366,11.966A9.446,9.446,0,0,1,5.257,7.857L6.629,6.486a.626.626,0,0,0,.156-.636,7.084,7.084,0,0,1-.355-2.226A.625.625,0,0,0,5.806,3Z" transform="translate(-1.129 -1.129)"/></svg>