<svg xmlns="http://www.w3.org/2000/svg" width="16.365" height="13.297" viewBox="0 0 16.365 13.297"><defs><style></style></defs><g transform="translate(0)"><path class="a" d="M16.365,49.574a7,7,0,0,1-1.933.53,3.336,3.336,0,0,0,1.476-1.854,6.7,6.7,0,0,1-2.127.812,3.355,3.355,0,0,0-5.8,2.294,3.455,3.455,0,0,0,.078.765,9.5,9.5,0,0,1-6.915-3.509A3.356,3.356,0,0,0,2.17,53.1a3.313,3.313,0,0,1-1.516-.413v.037a3.37,3.37,0,0,0,2.688,3.3,3.349,3.349,0,0,1-.88.11,2.967,2.967,0,0,1-.635-.057,3.387,3.387,0,0,0,3.135,2.337A6.741,6.741,0,0,1,.8,59.837a6.286,6.286,0,0,1-.8-.046A9.445,9.445,0,0,0,5.147,61.3,9.483,9.483,0,0,0,14.7,51.75c0-.148-.005-.292-.012-.434A6.693,6.693,0,0,0,16.365,49.574Z" transform="translate(0 -48)"/></g></svg>