<svg xmlns="http://www.w3.org/2000/svg" width="19.341" height="13.297" viewBox="0 0 19.341 13.297"><defs><style></style></defs><path class="a" d="M18.519,81.281c-.525-.933-1.094-1.1-2.253-1.17S12.2,80,9.673,80s-5.441.033-6.6.11-1.727.237-2.257,1.171S0,83.819,0,86.645v.01c0,2.814.278,4.431.818,5.354s1.1,1.1,2.256,1.181,4.071.108,6.6.108,5.435-.04,6.594-.106S18,92.943,18.52,92.009c.545-.922.821-2.54.821-5.354v-.01C19.341,83.819,19.065,82.213,18.519,81.281ZM7.253,90.275V83.022L13.3,86.648Z" transform="translate(0 -80)"/></svg>